<svg width="223" height="227" viewBox="0 0 223 227" fill="none" xmlns="http://www.w3.org/2000/svg">
<path d="M108.361 112.491C108.361 112.491 110.057 -8.48491 159.5 20.4999C208.943 49.4847 108.361 112.491 108.361 112.491Z" fill="#DA00B2" stroke="#DA00B2"/>
<path d="M108 112C108 112 228.976 113.696 199.991 163.139C171.006 212.582 108 112 108 112Z" fill="#DA00B2" stroke="#DA00B2"/>
<path d="M108.219 114.046C108.219 114.046 23.8752 27.3039 79.3321 12.8377C134.789 -1.62844 108.219 114.046 108.219 114.046Z" fill="#DA00B2" stroke="#DA00B2"/>
<path d="M108 112.219C108 112.219 194.742 27.8752 209.208 83.332C223.674 138.789 108 112.219 108 112.219Z" fill="#DA00B2" stroke="#DA00B2"/>
<path d="M107.827 112C107.827 112 192.171 198.742 136.714 213.208C81.2569 227.674 107.827 112 107.827 112Z" fill="#DA00B2" stroke="#DA00B2"/>
<path d="M114.046 109.827C114.046 109.827 27.3039 194.171 12.8378 138.714C-1.62838 83.2568 114.046 109.827 114.046 109.827Z" fill="#DA00B2" stroke="#DA00B2"/>
<path d="M107.809 112C107.809 112 106.113 232.976 56.6699 203.991C7.22687 175.006 107.809 112 107.809 112Z" fill="#DA00B2" stroke="#DA00B2"/>
<path d="M110.477 111.809C110.477 111.809 -10.4995 110.113 18.4853 60.6699C47.4702 11.2268 110.477 111.809 110.477 111.809Z" fill="#DA00B2" stroke="#DA00B2"/>
<ellipse cx="108.5" cy="111" rx="19.5" ry="21" fill="#ED59D2"/>
<path d="M84.2669 64.0347C85.6565 67.9024 95.6302 78.0649 99.05 81.7236C99.3944 78.3774 99.449 56.3188 97.1667 49.0329C94.4116 40.2373 91.904 34.2749 90.229 32.4994C88.798 30.9825 87.5082 29.3741 86.1514 29.7902C84.3175 30.3527 82.6616 31.3037 82.0273 32.6796C80.877 35.1748 78.3073 40.131 79.5649 49.9247C80.202 54.8862 82.3056 58.5758 84.2669 64.0347Z" fill="#ED59D2" stroke="#ED59D2" stroke-width="2" stroke-linecap="round"/>
<path d="M156.689 90.0403C152.821 91.4299 142.659 101.404 139 104.823C142.346 105.168 164.405 105.222 171.691 102.94C180.486 100.185 186.449 97.6774 188.224 96.0024C189.741 94.5714 191.349 93.2816 190.933 91.9248C190.371 90.0909 189.42 88.435 188.044 87.8007C185.549 86.6504 180.593 84.0806 170.799 85.3383C165.837 85.9754 162.148 88.079 156.689 90.0403Z" fill="#ED59D2" stroke="#ED59D2" stroke-width="2" stroke-linecap="round"/>
<path d="M130.96 162.689C129.57 158.821 119.596 148.659 116.177 145C115.832 148.346 115.778 170.405 118.06 177.691C120.815 186.486 123.323 192.449 124.998 194.224C126.429 195.741 127.718 197.349 129.075 196.933C130.909 196.371 132.565 195.42 133.199 194.044C134.35 191.549 136.919 186.593 135.662 176.799C135.025 171.837 132.921 168.148 130.96 162.689Z" fill="#ED59D2" stroke="#ED59D2" stroke-width="2" stroke-linecap="round"/>
<path d="M57.3111 131.96C61.1789 130.57 71.3414 120.596 75 117.177C71.6539 116.832 49.5952 116.778 42.3093 119.06C33.5137 121.815 27.5514 124.322 25.7758 125.998C24.259 127.428 22.6505 128.718 23.0667 130.075C23.6292 131.909 24.5802 133.565 25.9561 134.199C28.4512 135.349 33.4074 137.919 43.2012 136.662C48.1627 136.024 51.8523 133.921 57.3111 131.96Z" fill="#ED59D2" stroke="#ED59D2" stroke-width="2" stroke-linecap="round"/>
<path d="M76.9383 153.353C79.3148 151.453 83.8917 148.766 85.7005 147.827C86.174 149.557 87.7947 154.318 88.1296 155.655C88.3997 156.734 88.7916 160.288 88.3299 162.705C87.9222 164.839 87.7752 167.165 87.2838 169.181C86.9146 170.695 87.0136 171.832 86.169 172.991C85.0895 174.471 84.4566 175.204 83.5052 175.786C81.5607 176.976 78.3146 181.599 75 181.5C70.4504 181.364 69.4105 179.124 69.1837 178.5C68.9146 177.759 66.847 174.184 67.0521 172.237C67.2231 170.614 67.3847 169.247 67.7279 168.056C68.0972 166.774 68.2525 165.518 69.1838 163.22C70.2622 160.558 71.4091 158.005 72.6225 156.79C74.1066 155.305 75.8253 154.243 76.9383 153.353Z" fill="#ED59D2" stroke="#ED59D2" stroke-width="2" stroke-linecap="round"/>
<path d="M63.1487 77.9004C65.0487 80.2769 67.7357 84.8538 68.6746 86.6626C66.9446 87.1361 62.1832 88.7568 60.8461 89.0917C59.7677 89.3618 56.2138 89.7537 53.7967 89.292C51.662 88.8843 49.3363 88.7373 47.3209 88.2459C45.8064 87.8767 44.669 87.9757 43.5109 87.1311C42.0308 86.0516 41.2977 85.4187 40.7156 84.4673C39.5258 82.5228 34.9027 79.2767 35.0015 75.9621C35.137 71.4125 37.3774 70.3726 38.0015 70.1458C38.742 69.8767 42.3175 67.8091 44.2646 68.0142C45.8873 68.1852 47.2543 68.3468 48.4459 68.69C49.7277 69.0593 50.9833 69.2146 53.2817 70.1458C55.9435 71.2243 58.4969 72.3712 59.711 73.5846C61.1962 75.0687 62.2589 76.7874 63.1487 77.9004Z" fill="#ED59D2" stroke="#ED59D2" stroke-width="2" stroke-linecap="round"/>
<path d="M137.605 70.1487C135.228 72.0486 130.652 74.7357 128.843 75.6745C128.369 73.9445 126.748 69.1831 126.414 67.8461C126.143 66.7676 125.752 63.2137 126.213 60.7966C126.621 58.662 126.768 56.3363 127.259 54.3208C127.629 52.8063 127.53 51.669 128.374 50.5108C129.454 49.0307 130.087 48.2977 131.038 47.7155C132.982 46.5258 136.229 41.9026 139.543 42.0014C144.093 42.137 145.133 44.3773 145.359 45.0014C145.629 45.742 147.696 49.3175 147.491 51.2645C147.32 52.8873 147.159 54.2542 146.815 55.4458C146.446 56.7276 146.291 57.9832 145.359 60.2817C144.281 62.9434 143.134 65.4968 141.921 66.711C140.437 68.1961 138.718 69.2588 137.605 70.1487Z" fill="#ED59D2" stroke="#ED59D2" stroke-width="2" stroke-linecap="round"/>
<path d="M149.526 140.605C147.626 138.228 144.939 133.651 144 131.843C145.73 131.369 150.491 129.748 151.828 129.414C152.907 129.143 156.461 128.752 158.878 129.213C161.013 129.621 163.338 129.768 165.354 130.259C166.868 130.629 168.006 130.53 169.164 131.374C170.644 132.454 171.377 133.087 171.959 134.038C173.149 135.982 177.772 139.229 177.673 142.543C177.538 147.093 175.297 148.133 174.673 148.359C173.933 148.629 170.357 150.696 168.41 150.491C166.787 150.32 165.42 150.158 164.229 149.815C162.947 149.446 161.691 149.291 159.393 148.359C156.731 147.281 154.178 146.134 152.964 144.921C151.478 143.437 150.416 141.718 149.526 140.605Z" fill="#ED59D2" stroke="#ED59D2" stroke-width="2" stroke-linecap="round"/>
</svg>
