<svg width="766" height="305" viewBox="0 0 766 305" fill="none" xmlns="http://www.w3.org/2000/svg">
<path d="M370.5 167L0 103V34.5C0 34.5 22.0498 31.5555 23.6881 31.4738C26.977 31.0751 30.3826 29.6661 34.5034 29.3119C40.1493 28.8267 50.5034 28.0435 55.9945 27.7914C64.8349 27.3854 84.6981 26.2675 91.3067 24.1041C95.9588 22.5812 99.8459 21.6057 105.025 17.6665C117.31 8.32221 120.956 5.91907 128.265 3.36184C133.751 1.44255 157.762 -2.49865 159.18 2.25687C159.997 4.99768 160.099 9.47228 168.382 13.2369C176.996 17.1524 182.467 20.5324 188.485 19.9437C190.94 19.7035 192.799 19.2357 194.5 19.0621C199.185 18.5841 204.824 19.5869 227.394 23.1577C233.923 24.1906 241.438 26.4643 246.113 31.6588C250.068 36.0523 250.253 38.4672 255.467 46.4775C259.232 52.2618 370.5 167 370.5 167Z" fill="#686BF4"/>
<path d="M213.705 109.591C196.028 116.662 156.5 146.5 156.5 146.5L594.5 195.5C594.5 195.5 522.33 77.8087 510.5 71.5C498.186 66.3624 489.715 62.8688 482.106 59.4268C470.737 54.2843 461.274 50.5611 457.769 49.2472C452.958 47.444 445.204 47.262 437.326 42.7817C428.584 37.8107 423.797 31.8797 418.157 23.498C416.775 21.445 415.122 18.6302 406.633 19.0483C383.204 20.2022 367.161 22.3239 364.99 23.6175L365.001 23.6108C362.784 24.9153 356.632 28.9599 354.724 30.4898C351.203 33.7607 347.404 36.3977 340.732 41.8506C335.177 47.4379 331.043 50.8878 327.702 54.0682C325.941 55.7444 316.977 63.2876 304.16 73.0385C299.57 76.5299 298.494 77.163 294.353 79.1101C290.212 81.0573 283.218 84.2226 267.387 90.1264C251.557 96.0301 227.313 104.147 213.705 109.591Z" fill="#6063E6"/>
<path d="M626 120.5C650.706 121.396 766.001 120.5 766.001 120.5V98.0004C766.001 98.0004 758.522 98.1785 757.278 98.265C753.547 99.0335 753.332 103.484 748.5 101.5C746.021 100.482 740.496 93.9114 735.028 94.0991C729.468 94.29 731.529 103.484 704 100.377C693.267 99.1659 688.618 90.3487 680.5 89C672.383 87.6512 624 120.427 626 120.5Z" fill="#6063E6"/>
<path d="M424.515 139.036C407.142 146.263 362.323 189.5 370 189.5L766 237.5L766 118.329C766 118.329 719.031 120.402 697.407 119.322C687.848 118.844 680.345 119.007 673.163 118.367C658.816 117.087 653.742 114.846 646.067 111.992C638.786 109.284 629.746 107.419 618.921 101.479C611.686 97.5087 609.114 95.5195 605.515 93.211C601.54 90.6611 597.763 88.0811 582.332 80.8672C576.051 77.9305 571.725 75.6344 567.134 74.4327C560.428 72.6778 545.655 65.4303 540.152 68.9532C538.788 69.827 536.195 72.4874 529.969 76.3022C522.582 80.829 515.817 83.7011 510.084 86.8911C500.365 92.299 494.211 96.5294 491.629 97.5278C488.344 98.7979 476.309 104.366 463.636 113.797C456.828 118.863 454.368 122.48 450.378 125.312C446.682 127.936 438.936 133.037 424.515 139.036Z" fill="#5456CF"/>
<path d="M387.999 257.48C388.037 257.487 388.037 257.494 387.998 257.5C387.993 257.496 387.993 257.49 387.999 257.48C384.221 256.713 0.000488281 247.5 0.000488281 247.5V99C0.000488281 99 65.6841 111.042 74.2778 110.59C82.8714 110.137 95.165 109.233 104.292 108.767C118.967 108.019 129.514 108.904 139.365 110.647C150.416 112.601 157.48 116.056 164.638 118.556C176.702 122.769 189.348 126.55 199.474 130.118C211.103 134.217 220.141 135.395 222.817 135.699C233.157 136.872 255.354 134.651 262.614 133.041C267.267 132.009 279.907 135.518 288.573 138.208C290.449 138.79 300.498 141.003 314.604 145.11C323.299 147.643 339.665 148.944 351.51 148.414C356.676 148.183 363.761 146.369 370.416 145.519C379.178 144.401 386.367 151.976 389.055 154.415C392.186 157.255 396.815 159.74 407.783 165.74C416.513 170.516 423.332 171.923 427.011 173.142C431.097 174.497 437.997 175.275 444.634 176.869C453.591 179.019 458.604 180.6 464.679 182.198C469.227 183.395 482.119 194.568 486.5 197C487.488 197.61 388.791 256.149 387.999 257.48Z" fill="#484ABC"/>
<path d="M348 253C331.944 263.075 474.376 304.361 473.501 305H766V152C761.143 153.33 756.257 154.297 751.252 154.907C747.42 155.554 739.077 155.015 733.428 156.846C710.725 164.208 703.54 176.051 680.5 182C672.306 184.116 645.678 190.743 639.727 190.167C637.23 189.924 635.455 187.827 618 182C612.715 180.235 603.306 165.326 589 166C568.813 166.952 549.887 183.638 530.708 187.266C521.647 188.98 503.905 179.696 492.5 182C486.808 183.15 477.15 195.918 456.113 206.998C435.075 218.079 364.057 242.925 348 253Z" fill="#4243AA"/>
<path d="M454.425 296.852C465.387 301.285 473.501 305 473.501 305H0.000488281L0.000533596 187C0.000533596 187 7.19373 185.703 13.5942 184.984C19.7478 184.416 25.8472 180.096 39.4751 176.305C44.3988 174.936 56.7582 170.106 70.7985 170.021C83.9532 169.941 93.5482 170.04 95.4048 171.161C100.357 174.152 107.712 180.185 113.648 182.696C117.074 184.146 127.812 187.849 142.906 190.849C152.186 192.693 156.958 193.941 160.265 194.466C165.332 195.272 174.344 197.58 187.475 201.261C208.128 207.052 216.737 209.106 222.093 209.547C227.066 209.956 237.086 210.568 247.065 212.455C250.891 213.179 260.981 214.297 273.547 216.005C278.854 216.726 280.861 216.83 286.064 219.923C299.223 227.746 308.625 233.901 310.946 235.693C313.135 237.382 314.567 239.334 320.337 242.011C332.673 247.734 343.349 251.132 347.847 252.385C355.371 254.481 360.257 256.146 364.416 257.462C368.27 258.681 372.883 259.969 382.675 262.793C390.203 264.963 395.29 265.601 399.108 266.415C403.645 267.383 409.82 270.289 418.174 273.68C422.551 275.456 424.774 277.949 431.382 282.592C441.25 289.525 448.796 294.575 454.425 296.852Z" fill="#383991"/>
</svg>
