<svg width="174" height="33" viewBox="0 0 174 33" fill="none" xmlns="http://www.w3.org/2000/svg">
<path d="M19 14.2707C17.2789 11.0837 12.5938 5.14542 8.2365 2.21773C4.06283 -0.587837 2.47158 -0.102402 1.42817 0.348358C0.220083 0.865452 0 2.63231 0 3.66951C0 4.70973 0.5985 12.1872 0.988 13.437C2.27842 17.5617 6.86692 18.9547 11.0944 18.5084C11.3098 18.4783 11.5298 18.4496 11.7515 18.424C11.533 18.4572 11.3145 18.4843 11.0944 18.5084C4.90042 19.3828 -0.601667 21.5311 6.61358 29.1789C14.5508 37.0032 17.4911 27.501 19 22.6844C20.5089 27.501 22.2458 36.661 31.2439 29.1789C38 22.6844 33.0996 19.3828 26.9056 18.5084C26.6859 18.4853 26.4668 18.4571 26.2485 18.424C26.4702 18.4496 26.6903 18.4783 26.9056 18.5084C31.1331 18.9562 35.7216 17.5617 37.012 13.437C37.4015 12.1887 38 4.70822 38 3.67102C38 2.63081 37.7799 0.865452 36.5718 0.345343C35.5284 -0.10391 33.9372 -0.589345 29.7635 2.21472C25.4062 5.14692 20.7211 11.0852 19 14.2707Z" fill="#4E0B89"/>
<path d="M99.1896 5.58806C96.7298 4.4961 94.0997 3.70252 91.3499 3.25064C91.0122 3.82993 90.6177 4.60908 90.3457 5.2289C87.4226 4.81182 84.5265 4.81182 81.6572 5.2289C81.3852 4.60908 80.9817 3.82993 80.641 3.25064C77.8883 3.70252 75.2551 4.49902 72.7953 5.59384C67.8339 12.7074 66.4889 19.6442 67.1614 26.4825C70.4521 28.8141 73.6411 30.2305 76.7764 31.1573C77.5505 30.1464 78.2409 29.0719 78.8357 27.9394C77.7029 27.531 76.618 27.0271 75.5929 26.442C75.8648 26.2508 76.1309 26.0509 76.3879 25.8453C82.6405 28.6201 89.4341 28.6201 95.612 25.8453C95.872 26.0509 96.138 26.2508 96.407 26.442C95.3788 27.0299 94.2909 27.5339 93.1582 27.9423C93.7529 29.0719 94.4404 30.1494 95.2175 31.1602C98.3558 30.2333 101.548 28.817 104.838 26.4825C105.628 18.5551 103.491 11.682 99.1896 5.58806ZM79.6875 22.277C77.8106 22.277 76.2713 20.6145 76.2713 18.5899C76.2713 16.5653 77.7777 14.8999 79.6875 14.8999C81.5974 14.8999 83.1366 16.5624 83.1038 18.5899C83.1067 20.6145 81.5974 22.277 79.6875 22.277ZM92.3123 22.277C90.4354 22.277 88.8961 20.6145 88.8961 18.5899C88.8961 16.5653 90.4024 14.8999 92.3123 14.8999C94.2222 14.8999 95.7614 16.5624 95.7286 18.5899C95.7286 20.6145 94.2222 22.277 92.3123 22.277Z" fill="#4E0B89"/>
<path d="M150.007 31.1558C163.214 31.1558 170.438 20.7149 170.438 11.6606C170.438 11.364 170.438 11.0688 170.417 10.7736C171.823 9.80405 173.036 8.60359 174 7.22836C172.689 7.78248 171.299 8.14588 169.876 8.30643C171.375 7.45015 172.497 6.10339 173.033 4.51676C171.623 5.31483 170.081 5.87726 168.473 6.17978C167.39 5.08132 165.958 4.35397 164.399 4.11025C162.839 3.86654 161.239 4.12007 159.845 4.8316C158.452 5.54313 157.343 6.67299 156.691 8.04635C156.038 9.41971 155.878 10.96 156.235 12.4289C153.38 12.2923 150.588 11.5844 148.038 10.351C145.488 9.11773 143.239 7.38658 141.436 5.27C140.518 6.77836 140.237 8.56396 140.65 10.2632C141.063 11.9625 142.139 13.4477 143.659 14.4165C142.516 14.3841 141.399 14.09 140.4 13.5589V13.6456C140.4 15.2276 140.974 16.7607 142.024 17.9849C143.074 19.2091 144.536 20.049 146.161 20.3623C145.104 20.6374 143.995 20.6776 142.919 20.4798C143.377 21.8413 144.271 23.0318 145.474 23.885C146.677 24.7381 148.129 25.2112 149.627 25.2381C147.085 27.1449 143.943 28.1801 140.709 28.1769C140.138 28.1759 139.567 28.1429 139 28.0781C142.284 30.0889 146.105 31.1555 150.007 31.1505" fill="#4E0B89"/>
</svg>
