<svg width="555" height="66" viewBox="0 0 555 66" fill="none" xmlns="http://www.w3.org/2000/svg">
<path d="M333 19C333 8.50661 324.493 0 314 0H243.5H198.75H187.352C180.56 0 174.285 3.62566 170.892 9.5098L159.152 29.8715C155.939 35.4449 155.764 42.2659 158.688 47.9966L159.212 49.0229C162.457 55.3839 168.995 59.388 176.136 59.388H314C324.493 59.388 333 50.8814 333 40.388V19Z" fill="#666E79"/>
<path d="M217 12.408C217 10.7511 215.657 9.40796 214 9.40796H177.267C176.156 9.40796 175.136 10.0218 174.616 11.0034L165.334 28.5234C164.275 30.5215 165.723 32.928 167.985 32.928H214C215.657 32.928 217 31.5848 217 29.928V12.408Z" fill="white"/>
<path d="M333 35.28H158.531L157 37.632V40.572L159.75 45.864H331.5L333 43.218V40.572V35.28Z" fill="#C5C4CA"/>
<path d="M241 12.408C241 10.7511 239.657 9.40796 238 9.40796H224C222.343 9.40796 221 10.7511 221 12.408L221 29.928C221 31.5848 222.343 32.928 224 32.928H238C239.657 32.928 241 31.5848 241 29.928V12.408Z" fill="white"/>
<path d="M266 12.408C266 10.7511 264.657 9.40796 263 9.40796H249C247.343 9.40796 246 10.7511 246 12.408L246 29.928C246 31.5848 247.343 32.928 249 32.928H263C264.657 32.928 266 31.5848 266 29.928V12.408Z" fill="white"/>
<path d="M291 12.408C291 10.7511 289.657 9.40796 288 9.40796H274C272.343 9.40796 271 10.7511 271 12.408L271 29.928C271 31.5848 272.343 32.928 274 32.928H288C289.657 32.928 291 31.5848 291 29.928V12.408Z" fill="white"/>
<path d="M327.943 11.4238C327.524 10.217 326.387 9.40796 325.109 9.40796H299C297.343 9.40796 296 10.7511 296 12.408V29.928C296 31.5848 297.343 32.928 299 32.928H327C328.657 32.928 330 31.5848 330 29.928V20.2505C330 20.0785 329.985 19.9067 329.956 19.7372L329.123 14.9404C329.095 14.7804 329.054 14.6229 329.001 14.4694L327.943 11.4238Z" fill="white"/>
<rect width="176" height="59.976" rx="19" transform="matrix(-1 0 0 1 518 0)" fill="#666E79"/>
<path d="M518 35.28H342V37.632V40.572L343.5 45.864H516.758L517.5 42.924L518 40.572V35.28Z" fill="#C5C4CA"/>
<path d="M370 13.584C370 11.9271 368.657 10.584 367 10.584H353C351.343 10.584 350 11.9271 350 13.584L350 31.104C350 32.7608 351.343 34.104 353 34.104H367C368.657 34.104 370 32.7608 370 31.104V13.584Z" fill="white"/>
<path d="M395 13.584C395 11.9271 393.657 10.584 392 10.584H378C376.343 10.584 375 11.9271 375 13.584L375 31.104C375 32.7608 376.343 34.104 378 34.104H392C393.657 34.104 395 32.7608 395 31.104V13.584Z" fill="white"/>
<path d="M420 13.584C420 11.9271 418.657 10.584 417 10.584H403C401.343 10.584 400 11.9271 400 13.584L400 31.104C400 32.7608 401.343 34.104 403 34.104H417C418.657 34.104 420 32.7608 420 31.104V13.584Z" fill="white"/>
<path d="M460 13.584C460 11.9271 458.657 10.584 457 10.584H443C441.343 10.584 440 11.9271 440 13.584L440 31.104C440 32.7608 441.343 34.104 443 34.104H457C458.657 34.104 460 32.7608 460 31.104V13.584Z" fill="white"/>
<path d="M485 13.584C485 11.9271 483.657 10.584 482 10.584H468C466.343 10.584 465 11.9271 465 13.584L465 31.104C465 32.7608 466.343 34.104 468 34.104H482C483.657 34.104 485 32.7608 485 31.104V13.584Z" fill="white"/>
<path d="M510 13.584C510 11.9271 508.657 10.584 507 10.584H493C491.343 10.584 490 11.9271 490 13.584L490 31.104C490 32.7608 491.343 34.104 493 34.104H507C508.657 34.104 510 32.7608 510 31.104V13.584Z" fill="white"/>
<path d="M555 0H546C535.507 0 527 8.50659 527 19V40.976C527 51.4694 535.507 59.976 546 59.976H555V0Z" fill="#666E79"/>
<path d="M555 35.28H527V37.632V40.127L527.5 42.336L528.085 45.864H555L555 42.924V40.572V35.28Z" fill="#C5C4CA"/>
<path d="M555 13.584C555 11.9271 553.657 10.584 552 10.584H538C536.343 10.584 535 11.9271 535 13.584L535 31.104C535 32.7608 536.343 34.104 538 34.104H552C553.657 34.104 555 32.7608 555 31.104V13.584Z" fill="white"/>
<path d="M0 62.9161C0 61.2924 1.31628 59.9761 2.94 59.9761H555V65.8561H2.94C1.31629 65.8561 0 64.5398 0 62.9161V62.9161Z" fill="#848484"/>
</svg>
