<svg width="555" height="68" viewBox="0 0 555 68" fill="none" xmlns="http://www.w3.org/2000/svg">
<path d="M0 0H73C83.4934 0 92 8.50659 92 19V40.976C92 51.4694 83.4934 59.976 73 59.976H0V0Z" fill="#666E79"/>
<path d="M286 19C286 8.50661 294.507 0 305 0H375.5H420.25H431.648C438.44 0 444.715 3.62566 448.108 9.5098L459.848 29.8715C463.061 35.4449 463.236 42.2659 460.312 47.9966L459.788 49.0229C456.543 55.3839 450.005 59.388 442.864 59.388H305C294.507 59.388 286 50.8814 286 40.388V19Z" fill="#666E79"/>
<path d="M402 12.408C402 10.7512 403.343 9.40802 405 9.40802H441.733C442.844 9.40802 443.864 10.0219 444.384 11.0035L453.666 28.5235C454.725 30.5215 453.277 32.928 451.015 32.928H405C403.343 32.928 402 31.5849 402 29.928V12.408Z" fill="white"/>
<path d="M286 35.2801H460.469L462 37.6321V40.5721L459.25 45.8641H287.5L286 43.2181V40.5721V35.2801Z" fill="#C5C4CA"/>
<path d="M378 12.408C378 10.7512 379.343 9.40802 381 9.40802H395C396.657 9.40802 398 10.7512 398 12.408L398 29.928C398 31.5849 396.657 32.928 395 32.928H381C379.343 32.928 378 31.5849 378 29.928V12.408Z" fill="white"/>
<path d="M353 12.408C353 10.7512 354.343 9.40802 356 9.40802H370C371.657 9.40802 373 10.7512 373 12.408L373 29.928C373 31.5849 371.657 32.928 370 32.928H356C354.343 32.928 353 31.5849 353 29.928V12.408Z" fill="white"/>
<path d="M328 12.408C328 10.7512 329.343 9.40802 331 9.40802H345C346.657 9.40802 348 10.7512 348 12.408L348 29.928C348 31.5849 346.657 32.928 345 32.928H331C329.343 32.928 328 31.5849 328 29.928V12.408Z" fill="white"/>
<path d="M291.057 11.4238C291.476 10.217 292.613 9.40802 293.891 9.40802H320C321.657 9.40802 323 10.7512 323 12.408V29.928C323 31.5849 321.657 32.928 320 32.928H292C290.343 32.928 289 31.5849 289 29.928V20.2506C289 20.0785 289.015 19.9068 289.044 19.7373L289.877 14.9404C289.905 14.7804 289.946 14.6229 289.999 14.4695L291.057 11.4238Z" fill="white"/>
<rect x="101" width="176" height="59.976" rx="19" fill="#666E79"/>
<path d="M101 35.2801H277V37.6321V40.5721L275.5 45.8641H102.242L101.5 42.9241L101 40.5721V35.2801Z" fill="#C5C4CA"/>
<path d="M249 13.584C249 11.9271 250.343 10.584 252 10.584H266C267.657 10.584 269 11.9271 269 13.584L269 31.104C269 32.7608 267.657 34.104 266 34.104H252C250.343 34.104 249 32.7608 249 31.104V13.584Z" fill="white"/>
<path d="M224 13.584C224 11.9271 225.343 10.584 227 10.584H241C242.657 10.584 244 11.9271 244 13.584L244 31.104C244 32.7608 242.657 34.104 241 34.104H227C225.343 34.104 224 32.7608 224 31.104V13.584Z" fill="white"/>
<path d="M199 13.584C199 11.9271 200.343 10.584 202 10.584H216C217.657 10.584 219 11.9271 219 13.584L219 31.104C219 32.7608 217.657 34.104 216 34.104H202C200.343 34.104 199 32.7608 199 31.104V13.584Z" fill="white"/>
<path d="M159 13.584C159 11.9271 160.343 10.584 162 10.584H176C177.657 10.584 179 11.9271 179 13.584L179 31.104C179 32.7608 177.657 34.104 176 34.104H162C160.343 34.104 159 32.7608 159 31.104V13.584Z" fill="white"/>
<path d="M134 13.584C134 11.9271 135.343 10.584 137 10.584H151C152.657 10.584 154 11.9271 154 13.584L154 31.104C154 32.7608 152.657 34.104 151 34.104H137C135.343 34.104 134 32.7608 134 31.104V13.584Z" fill="white"/>
<path d="M109 13.584C109 11.9271 110.343 10.584 112 10.584H126C127.657 10.584 129 11.9271 129 13.584L129 31.104C129 32.7608 127.657 34.104 126 34.104H112C110.343 34.104 109 32.7608 109 31.104V13.584Z" fill="white"/>
<path d="M64 13.584C64 11.9271 65.3431 10.584 67 10.584H81C82.6569 10.584 84 11.9271 84 13.584L84 31.104C84 32.7608 82.6569 34.104 81 34.104H67C65.3431 34.104 64 32.7608 64 31.104V13.584Z" fill="white"/>
<path d="M39 13.584C39 11.9271 40.3431 10.584 42 10.584H56C57.6569 10.584 59 11.9271 59 13.584L59 31.104C59 32.7608 57.6569 34.104 56 34.104H42C40.3431 34.104 39 32.7608 39 31.104V13.584Z" fill="white"/>
<path d="M14 13.584C14 11.9271 15.3431 10.584 17 10.584H31C32.6569 10.584 34 11.9271 34 13.584L34 31.104C34 32.7608 32.6569 34.104 31 34.104H17C15.3431 34.104 14 32.7608 14 31.104V13.584Z" fill="white"/>
<path d="M7.62939e-06 35.04H92V37.392V40.332L90.5 45.624H7.62939e-06L0 42.54L7.62939e-06 39.04V35.04Z" fill="#C5C4CA"/>
<path d="M0 61.152H552.06C553.684 61.152 555 62.4683 555 64.092V64.092C555 65.7158 553.684 67.032 552.06 67.032H0V61.152Z" fill="#848484"/>
</svg>
