<svg width="52" height="51" viewBox="0 0 52 51" fill="none" xmlns="http://www.w3.org/2000/svg">
<path d="M0.512911 20.0257C1.1725 12.9285 30.6886 18.1331 31.3481 23.8108C32.0077 29.4886 23.1034 34.3778 19.6406 35.4817C16.1778 36.5857 -5.25832 38.3207 9.74699 30.4349C24.7523 22.549 -0.146677 27.1229 0.512911 20.0257Z" fill="#629FF0" stroke="#629FF0"/>
<path d="M51.4871 19.3948C50.8275 12.2976 21.3114 17.5022 20.6519 23.18C19.9923 28.8577 28.8966 33.7469 32.3594 34.8508C35.8222 35.9548 57.2583 37.6899 42.253 29.804C27.2477 21.9182 52.1467 26.492 51.4871 19.3948Z" fill="#629FF0" stroke="#629FF0"/>
<path d="M31.8565 49.8982C39.2767 49.2673 33.8352 21.0362 27.899 20.4054C21.9628 19.7746 16.8511 28.2912 15.6969 31.6032C14.5427 34.9153 12.7287 55.4182 20.9735 41.0661C29.2182 26.7141 24.4362 50.5291 31.8565 49.8982Z" fill="#629FF0" stroke="#629FF0"/>
<path d="M31.8565 0.512356C39.2767 1.14323 33.8352 29.3743 27.899 30.0052C21.9628 30.636 16.8511 22.1194 15.6969 18.8073C14.5427 15.4952 12.7287 -5.00762 20.9735 9.34442C29.2182 23.6965 24.4362 -0.118515 31.8565 0.512356Z" fill="#629FF0" stroke="#629FF0"/>
<path d="M24.9044 20.2413C27.7603 20.2413 30.0109 22.3825 30.0109 24.9464C30.0106 27.5101 27.7601 29.6505 24.9044 29.6505C22.0487 29.6505 19.7982 27.5101 19.798 24.9464C19.798 22.3825 22.0486 20.2413 24.9044 20.2413Z" fill="#629FF0" stroke="#629FF0"/>
</svg>
