<svg width="85" height="116" viewBox="0 0 85 116" fill="none" xmlns="http://www.w3.org/2000/svg">
<rect x="35.5833" y="56.1519" width="1.79519" height="67.0491" transform="rotate(29 35.5833 56.1519)" fill="#BEBEBE"/>
<rect x="46.3791" y="52.766" width="23.781" height="18.3017" transform="rotate(29 46.3791 52.766)" fill="#B80000"/>
<rect x="13.6828" y="34.9262" width="24.0175" height="18.1771" transform="rotate(29 13.6828 34.9262)" fill="#B80000"/>
<rect x="65.7518" y="19.215" width="17.8153" height="10.1917" transform="rotate(29 65.7518 19.215)" fill="#B80000"/>
<rect x="41.5099" y="5.19818" width="17.8519" height="11.0337" transform="rotate(29 41.5099 5.19818)" fill="#B80000"/>
<ellipse cx="31.856" cy="65.1928" rx="30.5441" ry="10.6053" transform="rotate(29 31.856 65.1928)" fill="#B80000"/>
<ellipse cx="40.3743" cy="49.7176" rx="30.4453" ry="7.87572" transform="rotate(29 40.3743 49.7176)" fill="#A81B1B"/>
<ellipse cx="42.1264" cy="49.0602" rx="20.0133" ry="5.39464" transform="rotate(29 42.1264 49.0602)" fill="#B80000"/>
<rect x="46.5911" y="10.1519" width="31.0156" height="38.8554" transform="rotate(29 46.5911 10.1519)" fill="#B80000"/>
<ellipse cx="56.5181" cy="25.2383" rx="22.9125" ry="7.96699" transform="rotate(29 56.5181 25.2383)" fill="#B80000"/>
<ellipse cx="61.0714" cy="16.9579" rx="22.8893" ry="6.70112" transform="rotate(29 61.0714 16.9579)" fill="#8E0000"/>
</svg>
