<svg width="206" height="160" viewBox="0 0 206 160" fill="none" xmlns="http://www.w3.org/2000/svg">
<path d="M0.84967 13.4997C0.84967 13.4997 31.2596 2.49989 45.6199 2.5C59.9801 2.50011 88.7004 13.4999 101.371 13.4999C114.042 13.4999 142.763 2.50002 155.434 2.50011C166.837 2.5002 204.85 13.4997 204.85 13.4997" stroke="#629FF0" stroke-width="5"/>
<path d="M0.84967 157.5C0.84967 157.5 31.2596 146.5 45.6199 146.5C59.9801 146.5 88.7004 157.5 101.371 157.5C114.042 157.5 142.763 146.5 155.434 146.5C166.837 146.5 204.85 157.5 204.85 157.5" stroke="#629FF0" stroke-width="5"/>
<path d="M0.84967 85.4997C0.84967 85.4997 31.2596 74.4999 45.6199 74.5C59.9801 74.5001 88.7004 85.4999 101.371 85.4999C114.042 85.4999 142.763 74.5 155.434 74.5001C166.837 74.5002 204.85 85.4997 204.85 85.4997" stroke="#629FF0" stroke-width="5"/>
<path d="M0.84967 49.4997C0.84967 49.4997 31.2596 38.4999 45.6199 38.5C59.9801 38.5001 88.7004 49.4999 101.371 49.4999C114.042 49.4999 142.763 38.5 155.434 38.5001C166.837 38.5002 204.85 49.4997 204.85 49.4997" stroke="#629FF0" stroke-width="5"/>
<path d="M0.84967 121.5C0.84967 121.5 31.2596 110.5 45.6199 110.5C59.9801 110.5 88.7004 121.5 101.371 121.5C114.042 121.5 142.763 110.5 155.434 110.5C166.837 110.5 204.85 121.5 204.85 121.5" stroke="#629FF0" stroke-width="5"/>
</svg>
