<svg width="245" height="310" viewBox="0 0 245 310" fill="none" xmlns="http://www.w3.org/2000/svg">
<path d="M83.7847 139.344C97.8137 149.809 107.738 146.272 113.416 152.4C116.963 156.228 158.653 195.25 136.283 195.25C110.663 196.589 91.2173 171.432 55.7641 160.769C44.9441 157.515 8.09682 115.576 1.33324 149.052C-6.71869 178.177 134.199 227.387 136.283 227.387C156.896 227.387 152.065 234.417 204.241 270.416C219.132 279.898 237.752 298.238 243.501 306V134.5C243.501 123 233.474 128.45 227.947 125.169C224.313 123.012 220.111 122.115 216.673 118.427C212.406 113.851 201.497 113.164 200.054 110.22C191.358 92.4774 204.563 102.186 197.478 73.7305C190.161 44.346 173 35.5676 164.304 31.8852C150.598 26.0812 156.896 22.8466 136.283 1.42168C115.992 -3.59982 142.74 37.8846 125.011 37.8846C117.799 41.0918 101.442 49.2491 93.4471 56.9924C75.0886 74.7731 81.5303 75.0695 43.2032 65.0266C30.1001 61.5932 64.7823 125.169 83.7847 139.344Z" fill="#2B36A8" stroke="#2B36A8" stroke-width="2" stroke-linecap="round"/>
</svg>
