<svg width="676" height="321" viewBox="0 0 676 321" fill="none" xmlns="http://www.w3.org/2000/svg">
<path d="M158.063 142.462C174.855 139.297 189 148.652 189 148.652C189 148.652 166.663 174.657 145.446 169.462C124.229 164.267 118 166.509 118 166.509C118 166.509 141.272 145.626 158.063 142.462Z" fill="#1422B5"/>
<path d="M40.0631 280.699C56.8548 283.863 71 274.509 71 274.509C71 274.509 48.6628 248.504 27.446 253.699C6.22907 258.894 4.1433e-05 256.652 4.1433e-05 256.652C4.1433e-05 256.652 23.2715 277.535 40.0631 280.699Z" fill="#1422B5"/>
<path d="M357.063 39.4619C373.855 36.2975 388 45.6522 388 45.6522C388 45.6522 365.663 71.657 344.446 66.4618C323.229 61.2667 317 63.5086 317 63.5086C317 63.5086 340.272 42.6263 357.063 39.4619Z" fill="#1422B5"/>
<path d="M423.937 246.538C407.145 249.702 393 240.348 393 240.348C393 240.348 415.337 214.343 436.554 219.538C457.771 224.733 464 222.491 464 222.491C464 222.491 440.729 243.373 423.937 246.538Z" fill="#1422B5"/>
<path d="M252.063 130.699C268.855 133.863 283 124.509 283 124.509C283 124.509 260.663 98.5039 239.446 103.699C218.229 108.894 212 106.652 212 106.652C212 106.652 235.272 127.535 252.063 130.699Z" fill="#1422B5"/>
<path d="M181.063 51.699C197.855 54.8634 212 45.5087 212 45.5087C212 45.5087 189.663 19.5039 168.446 24.6991C147.229 29.8942 141 27.6523 141 27.6523C141 27.6523 164.272 48.5346 181.063 51.699Z" fill="#1422B5"/>
<path d="M36.9369 111.699C20.1452 114.863 5.99996 105.509 5.99996 105.509C5.99996 105.509 28.3372 79.5039 49.554 84.6991C70.7709 89.8942 77 87.6523 77 87.6523C77 87.6523 53.7285 108.535 36.9369 111.699Z" fill="#1422B5"/>
<path d="M236.937 259.462C220.145 256.297 206 265.652 206 265.652C206 265.652 228.337 291.657 249.554 286.462C270.771 281.267 277 283.509 277 283.509C277 283.509 253.728 262.626 236.937 259.462Z" fill="#1422B5"/>
<path d="M448.937 135.699C432.145 138.863 418 129.509 418 129.509C418 129.509 440.337 103.504 461.554 108.699C482.771 113.894 489 111.652 489 111.652C489 111.652 465.729 132.535 448.937 135.699Z" fill="#1422B5"/>
<path d="M577.063 63.699C593.855 66.8634 608 57.5087 608 57.5087C608 57.5087 585.663 31.5039 564.446 36.6991C543.229 41.8942 537 39.6523 537 39.6523C537 39.6523 560.271 60.5346 577.063 63.699Z" fill="#1422B5"/>
<path d="M343.063 203.699C359.855 206.863 374 197.509 374 197.509C374 197.509 351.663 171.504 330.446 176.699C309.229 181.894 303 179.652 303 179.652C303 179.652 326.272 200.535 343.063 203.699Z" fill="#1422B5"/>
<path d="M645.063 298.699C661.855 301.863 676 292.509 676 292.509C676 292.509 653.663 266.504 632.446 271.699C611.229 276.894 605 274.652 605 274.652C605 274.652 628.271 295.535 645.063 298.699Z" fill="#1422B5"/>
<path d="M590.937 184.699C574.145 187.863 560 178.509 560 178.509C560 178.509 582.337 152.504 603.554 157.699C624.771 162.894 631 160.652 631 160.652C631 160.652 607.728 181.535 590.937 184.699Z" fill="#1422B5"/>
</svg>
