<svg width="735" height="385" viewBox="0 0 735 385" fill="none" xmlns="http://www.w3.org/2000/svg">
<rect width="2.32764" height="31.2364" rx="1.16382" transform="matrix(0.988236 0.152934 -0.327681 0.944789 370.235 32)" fill="#5C7FAD"/>
<rect width="2.32764" height="31.2364" rx="1.16382" transform="matrix(0.988236 0.152934 -0.327681 0.944789 466.235 4)" fill="#5C7FAD"/>
<rect width="2.32764" height="31.2364" rx="1.16382" transform="matrix(0.988236 0.152934 -0.327681 0.944789 547.236 46)" fill="#5C7FAD"/>
<rect width="2.32764" height="31.2364" rx="1.16382" transform="matrix(0.988236 0.152934 -0.327681 0.944789 630.236 19)" fill="#5C7FAD"/>
<rect width="2.32764" height="31.2364" rx="1.16382" transform="matrix(0.988236 0.152934 -0.327681 0.944789 677.236 52)" fill="#5C7FAD"/>
<rect width="2.32764" height="31.2364" rx="1.16382" transform="matrix(0.988236 0.152934 -0.327681 0.944789 732.235 77)" fill="#5C7FAD"/>
<rect width="2.32764" height="31.2364" rx="1.16382" transform="matrix(0.988236 0.152934 -0.327681 0.944789 183.235 96)" fill="#5C7FAD"/>
<rect width="2.32764" height="31.2364" rx="1.16382" transform="matrix(0.988236 0.152934 -0.327681 0.944789 16.2356 111)" fill="#5C7FAD"/>
<rect width="2.32764" height="31.2364" rx="1.16382" transform="matrix(0.988236 0.152934 -0.327681 0.944789 243.989 79.2776)" fill="#5C7FAD"/>
<rect width="2.32764" height="31.2364" rx="1.16382" transform="matrix(0.988236 0.152934 -0.327681 0.944789 430.466 62.0515)" fill="#5C7FAD"/>
<rect width="2.32764" height="31.2364" rx="1.16382" transform="matrix(0.988236 0.152934 -0.327681 0.944789 485.453 102.85)" fill="#5C7FAD"/>
<rect width="2.32764" height="31.2364" rx="1.16382" transform="matrix(0.988236 0.152934 -0.327681 0.944789 184.236 176)" fill="#5C7FAD"/>
<rect width="2.32764" height="31.2364" rx="1.16382" transform="matrix(0.988236 0.152934 -0.327681 0.944789 129.233 117.356)" fill="#5C7FAD"/>
<rect width="2.32764" height="31.2364" rx="1.16382" transform="matrix(0.988236 0.152934 -0.327681 0.944789 53.2355 144)" fill="#5C7FAD"/>
<rect width="2.32764" height="31.2364" rx="1.16382" transform="matrix(0.988236 0.152934 -0.327681 0.944789 75.2356 71)" fill="#5C7FAD"/>
<rect width="2.32764" height="31.2364" rx="1.16382" transform="matrix(0.988236 0.152934 -0.327681 0.944789 189.002 268.764)" fill="#5C7FAD"/>
<rect width="2.32764" height="31.2364" rx="1.16382" transform="matrix(0.988236 0.152934 -0.327681 0.944789 138.236 332)" fill="#5C7FAD"/>
<rect width="2.32764" height="31.2364" rx="1.16382" transform="matrix(0.988236 0.152934 -0.327681 0.944789 15.2355 0)" fill="#5C7FAD"/>
<rect width="2.32764" height="31.2364" rx="1.16382" transform="matrix(0.988236 0.152934 -0.327681 0.944789 437.235 197)" fill="#5C7FAD"/>
<rect width="2.32764" height="31.2364" rx="1.16382" transform="matrix(0.988236 0.152934 -0.327681 0.944789 524.236 142)" fill="#5C7FAD"/>
<rect width="2.32764" height="31.2364" rx="1.16382" transform="matrix(0.988236 0.152934 -0.327681 0.944789 436.236 138)" fill="#5C7FAD"/>
<rect width="2.32764" height="31.2364" rx="1.16382" transform="matrix(0.988236 0.152934 -0.327681 0.944789 374.236 172)" fill="#5C7FAD"/>
<rect width="2.32764" height="31.2364" rx="1.16382" transform="matrix(0.988236 0.152934 -0.327681 0.944789 523.705 209.833)" fill="#5C7FAD"/>
<rect width="2.32764" height="31.2364" rx="1.16382" transform="matrix(0.988236 0.152934 -0.327681 0.944789 251.161 233.405)" fill="#5C7FAD"/>
<rect width="2.32764" height="31.2364" rx="1.16382" transform="matrix(0.988236 0.152934 -0.327681 0.944789 312.124 263.324)" fill="#5C7FAD"/>
<rect width="2.32764" height="31.2364" rx="1.16382" transform="matrix(0.988236 0.152934 -0.327681 0.944789 551.236 306)" fill="#5C7FAD"/>
<rect width="2.32764" height="31.2364" rx="1.16382" transform="matrix(0.988236 0.152934 -0.327681 0.944789 47.2356 329)" fill="#5C7FAD"/>
<rect width="2.32764" height="31.2364" rx="1.16382" transform="matrix(0.988236 0.152934 -0.327681 0.944789 227.254 335.855)" fill="#5C7FAD"/>
<rect width="2.32764" height="31.2364" rx="1.16382" transform="matrix(0.988236 0.152934 -0.327681 0.944789 377.235 314)" fill="#5C7FAD"/>
<rect width="2.32764" height="31.2364" rx="1.16382" transform="matrix(0.988236 0.152934 -0.327681 0.944789 364.72 113.73)" fill="#5C7FAD"/>
<rect width="2.32764" height="31.2364" rx="1.16382" transform="matrix(0.988236 0.152934 -0.327681 0.944789 302.236 65)" fill="#5C7FAD"/>
<rect width="2.32764" height="31.2364" rx="1.16382" transform="matrix(0.988236 0.152934 -0.327681 0.944789 465.132 321.349)" fill="#5C7FAD"/>
<rect width="2.32764" height="31.2364" rx="1.16382" transform="matrix(0.988236 0.152934 -0.327681 0.944789 56.2355 224)" fill="#5C7FAD"/>
<rect width="2.32764" height="31.2364" rx="1.16382" transform="matrix(0.988236 0.152934 -0.327681 0.944789 86.1995 284.177)" fill="#5C7FAD"/>
<rect width="2.32764" height="31.2364" rx="1.16382" transform="matrix(0.988236 0.152934 -0.327681 0.944789 143.578 237.938)" fill="#5C7FAD"/>
<rect width="2.32764" height="31.2364" rx="1.16382" transform="matrix(0.988236 0.152934 -0.327681 0.944789 243.989 168.128)" fill="#5C7FAD"/>
<rect width="2.32764" height="31.2364" rx="1.16382" transform="matrix(0.988236 0.152934 -0.327681 0.944789 282.24 126.422)" fill="#5C7FAD"/>
<rect width="2.32764" height="31.2364" rx="1.16382" transform="matrix(0.988236 0.152934 -0.327681 0.944789 306.147 181.727)" fill="#5C7FAD"/>
<rect width="2.32764" height="31.2364" rx="1.16382" transform="matrix(0.988236 0.152934 -0.327681 0.944789 114.888 201.673)" fill="#5C7FAD"/>
<rect width="2.32764" height="31.2364" rx="1.16382" transform="matrix(0.988236 0.152934 -0.327681 0.944789 572.748 95.5969)" fill="#5C7FAD"/>
<rect width="2.32764" height="31.2364" rx="1.16382" transform="matrix(0.988236 0.152934 -0.327681 0.944789 626.54 94.6903)" fill="#5C7FAD"/>
<rect width="2.32764" height="31.2364" rx="1.16382" transform="matrix(0.988236 0.152934 -0.327681 0.944789 634.908 290.523)" fill="#5C7FAD"/>
<rect width="2.32764" height="31.2364" rx="1.16382" transform="matrix(0.988236 0.152934 -0.327681 0.944789 693.481 285.99)" fill="#5C7FAD"/>
<rect width="2.32764" height="31.2364" rx="1.16382" transform="matrix(0.988236 0.152934 -0.327681 0.944789 673.235 117)" fill="#5C7FAD"/>
<rect width="2.32764" height="31.2364" rx="1.16382" transform="matrix(0.988236 0.152934 -0.327681 0.944789 470.236 244)" fill="#5C7FAD"/>
<rect width="2.32764" height="31.2364" rx="1.16382" transform="matrix(0.988236 0.152934 -0.327681 0.944789 596.236 344)" fill="#5C7FAD"/>
<rect width="2.32764" height="31.2364" rx="1.16382" transform="matrix(0.988236 0.152934 -0.327681 0.944789 714.997 354.894)" fill="#5C7FAD"/>
<rect width="2.32764" height="31.2364" rx="1.16382" transform="matrix(0.988236 0.152934 -0.327681 0.944789 627.735 225.245)" fill="#5C7FAD"/>
<rect width="2.32764" height="31.2364" rx="1.16382" transform="matrix(0.988236 0.152934 -0.327681 0.944789 665.987 183.54)" fill="#5C7FAD"/>
<rect width="2.32764" height="31.2364" rx="1.16382" transform="matrix(0.988236 0.152934 -0.327681 0.944789 390.235 238)" fill="#5C7FAD"/>
<rect width="2.32764" height="31.2364" rx="1.16382" transform="matrix(0.988236 0.152934 -0.327681 0.944789 728.235 161)" fill="#5C7FAD"/>
<rect width="2.32764" height="31.2364" rx="1.16382" transform="matrix(0.988236 0.152934 -0.327681 0.944789 731.733 242.471)" fill="#5C7FAD"/>
<rect width="2.32764" height="31.2364" rx="1.16382" transform="matrix(0.988236 0.152934 -0.327681 0.944789 585.897 172.661)" fill="#5C7FAD"/>
<rect width="2.32764" height="31.2364" rx="1.16382" transform="matrix(0.988236 0.152934 -0.327681 0.944789 564.236 229)" fill="#5C7FAD"/>
<rect width="2.32764" height="31.2364" rx="1.16382" transform="matrix(0.988236 0.152934 -0.327681 0.944789 10.2356 304)" fill="#5C7FAD"/>
</svg>
