<svg width="769" height="431" viewBox="0 0 769 431" fill="none" xmlns="http://www.w3.org/2000/svg">
<rect width="769" height="262" fill="#3B82E0"/>
<path d="M6.00076 87C6.00076 87 58.4496 137.17 171.684 147.288C284.918 157.406 440.251 103.703 555.905 103.703C671.558 103.703 763 151.941 763 151.941V425L6 424.999L6.00076 87Z" fill="#57759D" stroke="#57759D" stroke-width="12" stroke-linecap="round"/>
<path d="M6.5 68.5C6.5 68.5 60.279 134.068 174 147C287.721 159.932 441.903 94.3452 558.054 94.3452C674.204 94.3452 764.5 155 764.5 155" stroke="#DA00B2" stroke-width="16"/>
<path d="M524.715 65.4545C518.646 58.6243 516.725 54.8917 514.869 52.7389C515.171 52.6086 516.339 53.042 517.917 53.8261C519.143 54.4353 528.49 61.9591 531.05 64.4212C531.209 64.5739 536.494 41.3407 538.878 43.7193C542.336 47.1707 532.906 55.5688 534.698 65.7853C534.141 71.5014 554.237 89.3123 555.056 90.2924C556.005 91.4121 557.104 63.3868 561.515 67.4052C563.36 69.0856 561.898 84.2322 560.801 91.6288C559.803 98.3554 575.158 109.847 576.761 111.276C577.69 111.954 593.871 122.956 596.782 125.733C597.984 126.88 598.472 127.266 598.854 127.752C599.449 128.508 600.275 129.509 601.067 130.32C601.784 131.054 602.532 132.073 602.799 132.859C602.929 133.244 602.955 133.973 602.387 134.299C601.857 134.604 601.217 134.641 600.46 134.351C599.723 134.068 598.671 133.643 597.313 132.728C595.628 131.594 594.871 130.956 593.849 130.33C592.993 129.805 592.115 129.303 591.225 128.575C590.113 127.664 588.752 126.728 586.557 125.218L586.494 125.175C584.164 123.572 582.393 122.286 581.75 121.847C581.338 121.566 580.196 120.656 577.618 118.854C576.03 117.744 573.881 116.363 572.604 115.395C570.873 114.082 569.142 112.828 566.188 110.32C564.406 108.808 554.447 98.4145 552.081 96.038C551.9 95.8309 548.147 92.897 542.791 86.9237C541.562 85.554 538.603 89.1652 534.334 90.8022C529.761 92.5557 523.843 92.3276 521.891 90.1431C519.695 87.6854 536.017 90.7663 539.668 81.7273C537.086 79.4074 526.225 67.1535 524.715 65.4545Z" fill="#DA00B2" stroke="#DA00B2" stroke-width="2" stroke-linecap="round"/>
<ellipse cx="8.25652" cy="7.63661" rx="8.25652" ry="7.63661" transform="matrix(0.561972 -0.827156 0.743869 0.668326 507.339 89.5276)" fill="#F066D7"/>
<ellipse cx="4.30775" cy="4.85966" rx="4.30775" ry="4.85966" transform="matrix(0.561972 -0.827156 0.743869 0.668326 508.906 51.7239)" fill="#F066D7"/>
<ellipse cx="6.46162" cy="5.20678" rx="6.46162" ry="5.20678" transform="matrix(0.561972 -0.827156 0.743869 0.668326 530.128 44.9691)" fill="#F066D7"/>
<ellipse cx="6.10265" cy="5.90102" rx="6.10265" ry="5.90102" transform="matrix(0.561972 -0.827156 0.743869 0.668326 553.819 70.0793)" fill="#F066D7"/>
<path d="M210.946 85.747C216.851 81.3585 219.888 80.1545 221.742 78.8208C221.798 79.094 221.317 80.0429 220.52 81.3005C219.9 82.2776 213.035 89.3893 210.856 91.2897C210.721 91.4075 227.292 98.6684 225.199 100.427C222.163 102.98 217.192 93.9212 209.347 94.2498C205.169 93.0996 189.192 108.197 188.352 108.782C187.39 109.462 208.095 113.706 204.507 117.007C203.006 118.387 191.934 115.351 186.579 113.54C181.709 111.894 171.077 123.679 169.796 124.882C169.166 125.596 158.786 138.146 156.325 140.309C155.309 141.203 154.955 141.575 154.542 141.845C153.899 142.264 153.042 142.853 152.331 143.436C151.688 143.962 150.829 144.483 150.207 144.618C149.903 144.684 149.357 144.621 149.191 144.096C149.036 143.607 149.096 143.054 149.414 142.441C149.724 141.844 150.184 140.994 151.048 139.94C152.12 138.631 152.697 138.059 153.302 137.258C153.809 136.587 154.301 135.896 154.964 135.22C155.792 134.375 156.673 133.321 158.094 131.621L158.135 131.572C159.643 129.767 160.84 128.403 161.254 127.905C161.519 127.585 162.351 126.716 164.041 124.722C165.082 123.494 166.402 121.818 167.295 120.839C168.506 119.512 169.674 118.179 171.94 115.947C173.307 114.601 182.391 107.304 184.48 105.559C184.658 105.428 187.35 102.563 192.521 98.6836C193.706 97.7941 191.42 94.8366 190.781 90.9903C190.096 86.8706 191.068 81.8335 192.958 80.4209C195.084 78.8316 190.579 92.4345 196.811 96.624C198.887 94.688 209.477 86.8386 210.946 85.747Z" fill="#DA00B2" stroke="#DA00B2" stroke-width="2" stroke-linecap="round"/>
<ellipse cx="195.273" cy="77.0764" rx="6.5293" ry="6.2454" transform="rotate(47 195.273 77.0764)" fill="#F066D7"/>
<ellipse cx="222.722" cy="79.0393" rx="3.40659" ry="3.97434" transform="rotate(47 222.722 79.0393)" fill="#F066D7"/>
<ellipse cx="225.826" cy="99.4342" rx="5.10989" ry="4.25822" transform="rotate(47 225.826 99.4342)" fill="#F066D7"/>
<ellipse cx="203.322" cy="116.926" rx="4.82601" ry="4.82599" transform="rotate(47 203.322 116.926)" fill="#F066D7"/>
<path d="M153.969 148.381C155.104 135.607 205.919 144.975 207.055 155.194C208.19 165.414 192.861 174.214 186.899 176.202C180.937 178.189 144.033 181.312 169.866 167.117C195.699 152.923 152.833 161.156 153.969 148.381Z" fill="#DA00B2" stroke="#DA00B2"/>
<path d="M241.726 147.246C240.59 134.471 189.775 143.839 188.64 154.059C187.504 164.279 202.834 173.079 208.796 175.066C214.757 177.053 251.662 180.176 225.829 165.982C199.995 151.788 242.861 160.02 241.726 147.246Z" fill="#DA00B2" stroke="#DA00B2"/>
<path d="M207.93 202.151C220.704 201.015 211.336 150.2 201.117 149.065C190.897 147.929 182.096 163.259 180.109 169.22C178.122 175.182 174.999 212.086 189.194 186.253C203.388 160.42 195.155 203.286 207.93 202.151Z" fill="#DA00B2" stroke="#DA00B2"/>
<path d="M207.93 113.258C220.704 114.393 211.336 165.208 201.117 166.344C190.897 167.479 182.096 152.15 180.109 146.188C178.122 140.226 174.999 103.322 189.194 129.155C203.388 154.988 195.155 112.122 207.93 113.258Z" fill="#DA00B2" stroke="#DA00B2"/>
<ellipse cx="195.961" cy="157.237" rx="9.652" ry="9.36811" fill="#F066D7"/>
<path d="M570.461 99.2935L589.58 67.3291C589.58 67.3291 590.476 53.2885 570.461 52.9897C550.445 52.691 551.043 69.1215 551.043 69.1215L570.461 99.2935Z" fill="#DA00B2" stroke="#DA00B2"/>
<path d="M602.126 118.713L570.162 99.5941L600.334 80.1764C600.334 80.1764 616.764 79.579 616.466 99.5941C616.167 119.609 602.126 118.713 602.126 118.713Z" fill="#DA00B2" stroke="#DA00B2"/>
<path d="M570.168 99.2933L551.049 131.258C551.049 131.258 550.153 145.298 570.168 145.597C590.183 145.896 589.586 129.465 589.586 129.465L570.168 99.2933Z" fill="#DA00B2" stroke="#DA00B2"/>
<path d="M571.062 99.2993L539.098 80.1804C539.098 80.1804 525.057 79.2842 524.759 99.2993C524.46 119.314 540.89 118.717 540.89 118.717L571.062 99.2993Z" fill="#DA00B2" stroke="#DA00B2"/>
<path d="M551.339 74.7834L571.119 100.207L546.919 81.7381C546.919 81.7381 535.213 70.2082 538.378 67.4656C541.543 64.723 551.339 74.7834 551.339 74.7834Z" fill="#DA00B2" stroke="#DA00B2"/>
<path d="M596.062 80.4702L570.638 100.251L589.107 76.0504C589.107 76.0504 600.637 64.3442 603.38 67.5092C606.122 70.6743 596.062 80.4702 596.062 80.4702Z" fill="#DA00B2" stroke="#DA00B2"/>
<path d="M590.375 125.193L570.594 99.7694L594.795 118.239C594.795 118.239 606.501 129.768 603.336 132.511C600.171 135.254 590.375 125.193 590.375 125.193Z" fill="#DA00B2" stroke="#DA00B2"/>
<path d="M571.076 98.5309L545.652 118.312C545.652 118.312 535.592 128.108 538.334 131.273C541.077 134.438 552.607 122.731 552.607 122.731L571.076 98.5309Z" fill="#DA00B2" stroke="#DA00B2"/>
<ellipse cx="569.863" cy="98.9946" rx="13.443" ry="13.443" fill="#F066D7"/>
<path d="M143.607 128.238C143.607 128.238 144.57 59.5518 172.642 76.0083C200.714 92.4649 143.607 128.238 143.607 128.238Z" fill="#DA00B2" stroke="#DA00B2"/>
<path d="M143.402 127.959C143.402 127.959 212.088 128.921 195.631 156.993C179.175 185.065 143.402 127.959 143.402 127.959Z" fill="#DA00B2" stroke="#DA00B2"/>
<path d="M143.526 129.12C143.526 129.12 95.6387 79.8713 127.125 71.658C158.612 63.4446 143.526 129.12 143.526 129.12Z" fill="#DA00B2" stroke="#DA00B2"/>
<path d="M143.402 128.083C143.402 128.083 192.651 80.1957 200.864 111.682C209.078 143.169 143.402 128.083 143.402 128.083Z" fill="#DA00B2" stroke="#DA00B2"/>
<path d="M143.303 127.959C143.303 127.959 191.191 177.208 159.705 185.421C128.218 193.635 143.303 127.959 143.303 127.959Z" fill="#DA00B2" stroke="#DA00B2"/>
<path d="M146.835 126.725C146.835 126.725 97.5855 174.612 89.3721 143.126C81.1588 111.639 146.835 126.725 146.835 126.725Z" fill="#DA00B2" stroke="#DA00B2"/>
<path d="M143.293 127.959C143.293 127.959 142.33 196.645 114.258 180.188C86.1865 163.732 143.293 127.959 143.293 127.959Z" fill="#DA00B2" stroke="#DA00B2"/>
<path d="M144.808 127.85C144.808 127.85 76.122 126.887 92.5786 98.8154C109.035 70.7434 144.808 127.85 144.808 127.85Z" fill="#DA00B2" stroke="#DA00B2"/>
<ellipse cx="143.686" cy="127.391" rx="11.0714" ry="11.9231" fill="#ED59D2"/>
<path d="M129.927 100.726C130.716 102.922 136.379 108.692 138.32 110.769C138.516 108.869 138.547 96.345 137.251 92.2083C135.687 87.2145 134.263 83.8293 133.312 82.8212C132.5 81.96 131.767 81.0467 130.997 81.283C129.956 81.6024 129.016 82.1423 128.656 82.9235C128.003 84.3402 126.543 87.1541 127.258 92.7147C127.619 95.5316 128.814 97.6265 129.927 100.726Z" fill="#ED59D2" stroke="#ED59D2" stroke-width="2" stroke-linecap="round"/>
<path d="M171.046 115.491C168.85 116.28 163.08 121.942 161.003 123.884C162.902 124.08 175.427 124.111 179.563 122.815C184.557 121.251 187.942 119.827 188.95 118.876C189.812 118.063 190.725 117.331 190.489 116.561C190.169 115.519 189.629 114.579 188.848 114.219C187.431 113.566 184.617 112.107 179.057 112.821C176.24 113.183 174.145 114.377 171.046 115.491Z" fill="#ED59D2" stroke="#ED59D2" stroke-width="2" stroke-linecap="round"/>
<path d="M156.437 156.738C155.649 154.542 149.986 148.772 148.044 146.695C147.849 148.595 147.818 161.119 149.113 165.255C150.678 170.249 152.101 173.634 153.052 174.643C153.865 175.504 154.597 176.417 155.368 176.181C156.409 175.861 157.349 175.321 157.709 174.54C158.362 173.124 159.821 170.31 159.107 164.749C158.745 161.932 157.551 159.837 156.437 156.738Z" fill="#ED59D2" stroke="#ED59D2" stroke-width="2" stroke-linecap="round"/>
<path d="M114.622 139.291C116.818 138.502 122.588 132.839 124.666 130.898C122.766 130.702 110.242 130.671 106.105 131.967C101.111 133.531 97.7259 134.955 96.7178 135.906C95.8566 136.718 94.9434 137.451 95.1797 138.221C95.4991 139.262 96.039 140.202 96.8202 140.563C98.2369 141.216 101.051 142.675 106.611 141.961C109.428 141.599 111.523 140.405 114.622 139.291Z" fill="#ED59D2" stroke="#ED59D2" stroke-width="2" stroke-linecap="round"/>
<path d="M125.766 151.437C127.116 150.359 129.714 148.833 130.741 148.3C131.01 149.282 131.93 151.986 132.12 152.745C132.274 153.357 132.496 155.375 132.234 156.747C132.003 157.959 131.919 159.279 131.64 160.424C131.43 161.284 131.487 161.929 131.007 162.587C130.394 163.427 130.035 163.844 129.495 164.174C128.391 164.85 126.548 167.474 124.666 167.418C122.083 167.341 121.492 166.069 121.364 165.715C121.211 165.295 120.037 163.265 120.153 162.159C120.25 161.238 120.342 160.462 120.537 159.785C120.747 159.057 120.835 158.344 121.364 157.039C121.976 155.528 122.627 154.078 123.316 153.389C124.159 152.546 125.134 151.943 125.766 151.437Z" fill="#ED59D2" stroke="#ED59D2" stroke-width="2" stroke-linecap="round"/>
<path d="M117.937 108.598C119.016 109.947 120.541 112.546 121.074 113.573C120.092 113.842 117.389 114.762 116.63 114.952C116.017 115.106 114 115.328 112.627 115.066C111.415 114.834 110.095 114.751 108.951 114.472C108.091 114.262 107.445 114.319 106.787 113.839C105.947 113.226 105.531 112.867 105.2 112.327C104.525 111.223 101.9 109.38 101.956 107.498C102.033 104.915 103.305 104.324 103.659 104.195C104.08 104.043 106.11 102.869 107.215 102.985C108.137 103.082 108.913 103.174 109.589 103.369C110.317 103.579 111.03 103.667 112.335 104.195C113.846 104.808 115.296 105.459 115.985 106.148C116.828 106.99 117.432 107.966 117.937 108.598Z" fill="#ED59D2" stroke="#ED59D2" stroke-width="2" stroke-linecap="round"/>
<path d="M160.211 104.197C158.861 105.276 156.263 106.801 155.236 107.334C154.967 106.352 154.047 103.649 153.857 102.89C153.703 102.277 153.481 100.26 153.743 98.8874C153.974 97.6754 154.058 96.3549 154.337 95.2106C154.546 94.3507 154.49 93.705 154.97 93.0474C155.583 92.2071 155.942 91.7909 156.482 91.4604C157.586 90.7849 159.429 88.16 161.311 88.2161C163.894 88.2931 164.485 89.5651 164.613 89.9194C164.766 90.3398 165.94 92.3699 165.824 93.4754C165.726 94.3967 165.635 95.1728 165.44 95.8494C165.23 96.5771 165.142 97.29 164.613 98.595C164.001 100.106 163.35 101.556 162.661 102.245C161.818 103.089 160.842 103.692 160.211 104.197Z" fill="#ED59D2" stroke="#ED59D2" stroke-width="2" stroke-linecap="round"/>
<path d="M166.979 144.2C165.9 142.851 164.374 140.252 163.841 139.225C164.824 138.956 167.527 138.036 168.286 137.846C168.898 137.692 170.916 137.47 172.289 137.732C173.501 137.964 174.821 138.047 175.965 138.326C176.825 138.536 177.471 138.479 178.128 138.959C178.969 139.572 179.385 139.931 179.716 140.471C180.391 141.575 183.016 143.418 182.96 145.3C182.883 147.883 181.611 148.474 181.257 148.603C180.836 148.755 178.806 149.929 177.701 149.813C176.779 149.716 176.003 149.624 175.327 149.429C174.599 149.219 173.886 149.131 172.581 148.603C171.07 147.99 169.62 147.339 168.931 146.65C168.087 145.808 167.484 144.832 166.979 144.2Z" fill="#ED59D2" stroke="#ED59D2" stroke-width="2" stroke-linecap="round"/>
<path d="M760 148H769V168.119L760 161.641V148Z" fill="#DA00B2"/>
<path d="M0 48L12.5 63.5L2 75L0 73.5V48Z" fill="#DA00B2"/>
</svg>
